<svg width="21" height="21" viewBox="0 0 21 21" fill="none" xmlns="http://www.w3.org/2000/svg">
<path fill-rule="evenodd" clip-rule="evenodd" d="M6.75 3.94323C5.88215 4.04613 5.24558 4.24482 4.71756 4.62844C4.36383 4.88544 4.05276 5.19652 3.79576 5.55024C3 6.64552 3 8.20791 3 11.3327C3 14.4575 3 16.0198 3.79576 17.1151C4.05276 17.4688 4.36383 17.7799 4.71756 18.0369C5.81283 18.8327 7.37522 18.8327 10.5 18.8327C11.1991 18.8327 11.82 18.8327 12.375 18.8238L12.375 18.7653C12.3749 18.0553 12.3749 17.6228 12.434 17.2498C12.7587 15.1994 14.3668 13.5914 16.4171 13.2667C16.7901 13.2076 17.2226 13.2076 17.9326 13.2077L17.9911 13.2077C18 12.6528 18 12.032 18 11.3331C18 8.20829 18 6.64552 17.2042 5.55024C16.9472 5.19652 16.6362 4.88544 16.2824 4.62844C15.7544 4.24482 15.1178 4.04613 14.25 3.94323V4.66602C14.25 5.35637 13.6904 5.91602 13 5.91602C12.3096 5.91602 11.75 5.35637 11.75 4.66602V3.83502C11.3633 3.83268 10.9477 3.83268 10.5 3.83268C10.0523 3.83268 9.63675 3.83268 9.25 3.83502V4.66602C9.25 5.35637 8.69036 5.91602 8 5.91602C7.30964 5.91602 6.75 5.35637 6.75 4.66602V3.94323ZM6.33333 8.83268C6.79357 8.83268 7.16667 8.45959 7.16667 7.99935C7.16667 7.53911 6.79357 7.16602 6.33333 7.16602C5.8731 7.16602 5.5 7.53911 5.5 7.99935C5.5 8.45959 5.8731 8.83268 6.33333 8.83268ZM7.16667 11.3327C7.16667 11.7929 6.79357 12.166 6.33333 12.166C5.8731 12.166 5.5 11.7929 5.5 11.3327C5.5 10.8724 5.8731 10.4993 6.33333 10.4993C6.79357 10.4993 7.16667 10.8724 7.16667 11.3327ZM10.5 8.83268C10.9602 8.83268 11.3333 8.45959 11.3333 7.99935C11.3333 7.53911 10.9602 7.16602 10.5 7.16602C10.0398 7.16602 9.66667 7.53911 9.66667 7.99935C9.66667 8.45959 10.0398 8.83268 10.5 8.83268ZM11.3333 11.3327C11.3333 11.7929 10.9602 12.166 10.5 12.166C10.0398 12.166 9.66667 11.7929 9.66667 11.3327C9.66667 10.8724 10.0398 10.4993 10.5 10.4993C10.9602 10.4993 11.3333 10.8724 11.3333 11.3327ZM10.5 15.4993C10.9602 15.4993 11.3333 15.1263 11.3333 14.666C11.3333 14.2058 10.9602 13.8327 10.5 13.8327C10.0398 13.8327 9.66667 14.2058 9.66667 14.666C9.66667 15.1263 10.0398 15.4993 10.5 15.4993ZM15.5 7.99935C15.5 8.45959 15.1269 8.83268 14.6667 8.83268C14.2064 8.83268 13.8333 8.45959 13.8333 7.99935C13.8333 7.53911 14.2064 7.16602 14.6667 7.16602C15.1269 7.16602 15.5 7.53911 15.5 7.99935ZM14.6667 12.166C15.1269 12.166 15.5 11.7929 15.5 11.3327C15.5 10.8724 15.1269 10.4993 14.6667 10.4993C14.2064 10.4993 13.8333 10.8724 13.8333 11.3327C13.8333 11.7929 14.2064 12.166 14.6667 12.166ZM7.16667 14.666C7.16667 15.1263 6.79357 15.4993 6.33333 15.4993C5.8731 15.4993 5.5 15.1263 5.5 14.666C5.5 14.2058 5.8731 13.8327 6.33333 13.8327C6.79357 13.8327 7.16667 14.2058 7.16667 14.666Z" fill="white"/>
<path d="M17.9456 14.4577C17.1869 14.4578 16.8696 14.4606 16.6126 14.5013C15.0972 14.7413 13.9086 15.9299 13.6686 17.4453C13.6279 17.7023 13.6251 18.0196 13.625 18.7782C14.8247 18.6996 15.6351 18.5072 16.2824 18.0369C16.6362 17.7799 16.9472 17.4688 17.2042 17.1151C17.6745 16.4678 17.8669 15.6574 17.9456 14.4577Z" fill="white"/>
<path d="M8.625 2.16602C8.625 1.82084 8.34518 1.54102 8 1.54102C7.65482 1.54102 7.375 1.82084 7.375 2.16602V4.66602C7.375 5.01119 7.65482 5.29102 8 5.29102C8.34518 5.29102 8.625 5.01119 8.625 4.66602V2.16602Z" fill="white"/>
<path d="M13.625 2.16602C13.625 1.82084 13.3452 1.54102 13 1.54102C12.6548 1.54102 12.375 1.82084 12.375 2.16602V4.66602C12.375 5.01119 12.6548 5.29102 13 5.29102C13.3452 5.29102 13.625 5.01119 13.625 4.66602V2.16602Z" fill="white"/>
</svg>
