<svg width="21" height="21" viewBox="0 0 21 21" fill="none" xmlns="http://www.w3.org/2000/svg">
<path fill-rule="evenodd" clip-rule="evenodd" d="M8 1.54102C8.34518 1.54102 8.625 1.82084 8.625 2.16602V3.21652C9.1827 3.20768 9.80236 3.20768 10.4908 3.20768H10.5092C11.1976 3.20768 11.8173 3.20768 12.375 3.21652V2.16602C12.375 1.82084 12.6548 1.54102 13 1.54102C13.3452 1.54102 13.625 1.82084 13.625 2.16602V3.26067C14.8849 3.33965 15.8529 3.5438 16.6498 4.12281C17.0566 4.41836 17.4143 4.77609 17.7099 5.18288C18.1981 5.85481 18.4167 6.6418 18.5219 7.61308C18.625 8.56486 18.625 9.76452 18.625 11.295V11.3422C18.625 12.3088 18.625 13.1398 18.6005 13.8541C18.547 15.4153 18.3781 16.5628 17.7099 17.4825C17.4143 17.8893 17.0566 18.247 16.6498 18.5426C15.7301 19.2108 14.5826 19.3797 13.0214 19.4332C12.307 19.4577 11.4758 19.4577 10.509 19.4577H10.4623C8.93184 19.4577 7.73217 19.4577 6.7804 19.3546C5.80912 19.2493 5.02213 19.0307 4.3502 18.5426C3.94341 18.247 3.58568 17.8893 3.29013 17.4825C2.80194 16.8106 2.58334 16.0236 2.47811 15.0523C2.37499 14.1005 2.37499 12.9008 2.375 11.3704V11.295C2.37499 9.76453 2.37499 8.56486 2.47811 7.61308C2.58334 6.6418 2.80194 5.85481 3.29013 5.18288C3.58568 4.77609 3.94341 4.41836 4.3502 4.12281C5.14713 3.5438 6.11507 3.33965 7.375 3.26067V2.16602C7.375 1.82084 7.65482 1.54102 8 1.54102ZM7.375 4.51372C6.23996 4.59178 5.58481 4.77089 5.08493 5.13408C4.78426 5.35253 4.51985 5.61694 4.3014 5.91761C3.99383 6.34095 3.81454 6.88279 3.72083 7.74772C3.62586 8.62434 3.625 9.75637 3.625 11.3327C3.625 12.909 3.62586 14.041 3.72083 14.9176C3.81454 15.7826 3.99383 16.3244 4.3014 16.7478C4.51985 17.0484 4.78426 17.3128 5.08493 17.5313C5.50826 17.8389 6.05011 18.0181 6.91504 18.1119C7.79166 18.2068 8.92369 18.2077 10.5 18.2077C11.207 18.2077 11.8265 18.2076 12.3765 18.1987C12.3802 17.8031 12.3925 17.5119 12.434 17.2498C12.7587 15.1994 14.3668 13.5914 16.4171 13.2667C16.6793 13.2252 16.9704 13.2128 17.366 13.2092C17.375 12.6592 17.375 12.0396 17.375 11.3327C17.375 9.75637 17.3741 8.62434 17.2792 7.74772C17.1855 6.88279 17.0062 6.34095 16.6986 5.91761C16.4802 5.61694 16.2157 5.35253 15.9151 5.13408C15.4152 4.77089 14.76 4.59178 13.625 4.51372V4.66602C13.625 5.01119 13.3452 5.29102 13 5.29102C12.6548 5.29102 12.375 5.01119 12.375 4.66602V4.46667C11.8253 4.45772 11.2063 4.45768 10.5 4.45768C9.79369 4.45768 9.17465 4.45772 8.625 4.46667V4.66602C8.625 5.01119 8.34518 5.29102 8 5.29102C7.65482 5.29102 7.375 5.01119 7.375 4.66602V4.51372ZM17.3188 14.46C16.9813 14.4639 16.7835 14.4742 16.6126 14.5013C15.0972 14.7413 13.9086 15.9299 13.6686 17.4453C13.6415 17.6162 13.6312 17.814 13.6273 18.1515C14.7609 18.0733 15.4155 17.8942 15.9151 17.5313C16.2157 17.3128 16.4802 17.0484 16.6986 16.7478C17.0615 16.2482 17.2407 15.5936 17.3188 14.46Z" fill="#9B9B9B"/>
<path d="M7.16667 7.99935C7.16667 8.45959 6.79357 8.83268 6.33333 8.83268C5.8731 8.83268 5.5 8.45959 5.5 7.99935C5.5 7.53911 5.8731 7.16602 6.33333 7.16602C6.79357 7.16602 7.16667 7.53911 7.16667 7.99935Z" fill="#9B9B9B"/>
<path d="M7.16667 11.3327C7.16667 11.7929 6.79357 12.166 6.33333 12.166C5.8731 12.166 5.5 11.7929 5.5 11.3327C5.5 10.8724 5.8731 10.4993 6.33333 10.4993C6.79357 10.4993 7.16667 10.8724 7.16667 11.3327Z" fill="#9B9B9B"/>
<path d="M11.3333 7.99935C11.3333 8.45959 10.9602 8.83268 10.5 8.83268C10.0398 8.83268 9.66667 8.45959 9.66667 7.99935C9.66667 7.53911 10.0398 7.16602 10.5 7.16602C10.9602 7.16602 11.3333 7.53911 11.3333 7.99935Z" fill="#9B9B9B"/>
<path d="M11.3333 11.3327C11.3333 11.7929 10.9602 12.166 10.5 12.166C10.0398 12.166 9.66667 11.7929 9.66667 11.3327C9.66667 10.8724 10.0398 10.4993 10.5 10.4993C10.9602 10.4993 11.3333 10.8724 11.3333 11.3327Z" fill="#9B9B9B"/>
<path d="M11.3333 14.666C11.3333 15.1263 10.9602 15.4993 10.5 15.4993C10.0398 15.4993 9.66667 15.1263 9.66667 14.666C9.66667 14.2058 10.0398 13.8327 10.5 13.8327C10.9602 13.8327 11.3333 14.2058 11.3333 14.666Z" fill="#9B9B9B"/>
<path d="M15.5 7.99935C15.5 8.45959 15.1269 8.83268 14.6667 8.83268C14.2064 8.83268 13.8333 8.45959 13.8333 7.99935C13.8333 7.53911 14.2064 7.16602 14.6667 7.16602C15.1269 7.16602 15.5 7.53911 15.5 7.99935Z" fill="#9B9B9B"/>
<path d="M15.5 11.3327C15.5 11.7929 15.1269 12.166 14.6667 12.166C14.2064 12.166 13.8333 11.7929 13.8333 11.3327C13.8333 10.8724 14.2064 10.4993 14.6667 10.4993C15.1269 10.4993 15.5 10.8724 15.5 11.3327Z" fill="#9B9B9B"/>
<path d="M7.16667 14.666C7.16667 15.1263 6.79357 15.4993 6.33333 15.4993C5.8731 15.4993 5.5 15.1263 5.5 14.666C5.5 14.2058 5.8731 13.8327 6.33333 13.8327C6.79357 13.8327 7.16667 14.2058 7.16667 14.666Z" fill="#9B9B9B"/>
</svg>
