<svg width="20" height="20" viewBox="0 0 20 20" fill="none" xmlns="http://www.w3.org/2000/svg">
<path d="M5.20834 5.62496C5.20834 3.43883 6.98055 1.66663 9.16668 1.66663C11.3528 1.66663 13.125 3.43883 13.125 5.62496C13.125 7.81109 11.3528 9.58329 9.16668 9.58329C6.98055 9.58329 5.20834 7.81109 5.20834 5.62496Z" fill="white"/>
<path d="M2.70834 14.7916C2.70834 12.6055 4.48055 10.8333 6.66668 10.8333H11.6667C12.6406 10.8333 13.5323 11.185 14.2219 11.7684C13.8108 11.7796 13.403 11.9421 13.0893 12.2559C12.4384 12.9068 12.4384 13.962 13.0893 14.6129L13.6785 15.2022L13.0893 15.7914C12.4384 16.4423 12.4384 17.4976 13.0893 18.1484C13.174 18.2331 13.2655 18.3068 13.3622 18.3695C12.8482 18.6135 12.2734 18.75 11.6667 18.75H6.66668C4.48055 18.75 2.70834 16.9778 2.70834 14.7916Z" fill="white"/>
<path d="M18.2453 13.8763C18.4893 13.6323 18.4893 13.2365 18.2453 12.9925C18.0012 12.7484 17.6055 12.7484 17.3614 12.9925L16.0356 14.3183L14.7097 12.9925C14.4657 12.7484 14.0699 12.7484 13.8259 12.9925C13.5818 13.2365 13.5818 13.6323 13.8259 13.8763L15.1517 15.2022L13.8259 16.528C13.5818 16.7721 13.5818 17.1678 13.8259 17.4119C14.0699 17.6559 14.4657 17.6559 14.7097 17.4119L16.0356 16.086L17.3614 17.4119C17.6055 17.6559 18.0012 17.6559 18.2453 17.4119C18.4893 17.1678 18.4893 16.7721 18.2453 16.528L16.9194 15.2022L18.2453 13.8763Z" fill="white"/>
</svg>
