<svg width="18" height="19" viewBox="0 0 18 19" fill="none" xmlns="http://www.w3.org/2000/svg">
<rect x="0.75" y="1.25" width="16.5" height="16.5" rx="8.25" stroke="black" stroke-width="1.5"/>
<path d="M13.022 8.42942C13.2341 8.21546 13.2325 7.8701 13.0186 7.65804C12.8046 7.44598 12.4592 7.44752 12.2472 7.66148L10.9764 8.94364C10.4607 9.464 10.1057 9.82095 9.80498 10.0625C9.51284 10.2971 9.32519 10.3776 9.15714 10.399C9.05161 10.4125 8.94484 10.4125 8.83931 10.399C8.67126 10.3776 8.48361 10.2971 8.19147 10.0625C7.89072 9.82095 7.53578 9.464 7.02004 8.94364L5.74927 7.66149C5.53721 7.44752 5.19185 7.44598 4.97789 7.65804C4.76393 7.8701 4.76239 8.21546 4.97445 8.42943L6.26811 9.73468C6.75534 10.2263 7.15356 10.6281 7.50838 10.9131C7.87734 11.2094 8.25184 11.4239 8.70138 11.4812C8.89849 11.5063 9.09796 11.5063 9.29507 11.4812C9.74461 11.4239 10.1191 11.2094 10.4881 10.913C10.8429 10.6281 11.2411 10.2263 11.7283 9.73469L13.022 8.42942Z" fill="black" stroke="black" stroke-width="0.5" stroke-linecap="round"/>
</svg>
