<svg width="15" height="15" viewBox="0 0 15 15" fill="none" xmlns="http://www.w3.org/2000/svg">
<path fill-rule="evenodd" clip-rule="evenodd" d="M7.5 5.15625C6.20559 5.15625 5.15625 6.20558 5.15625 7.5C5.15625 8.79442 6.20559 9.84375 7.5 9.84375C8.79442 9.84375 9.84375 8.79442 9.84375 7.5C9.84375 6.20558 8.79442 5.15625 7.5 5.15625ZM6.09375 7.5C6.09375 6.72335 6.72335 6.09375 7.5 6.09375C8.27665 6.09375 8.90625 6.72335 8.90625 7.5C8.90625 8.27665 8.27665 8.90625 7.5 8.90625C6.72335 8.90625 6.09375 8.27665 6.09375 7.5Z" fill="#9B9B9B"/>
<path fill-rule="evenodd" clip-rule="evenodd" d="M7.5 2.03125C6.16191 2.03125 4.95203 2.69312 3.96983 3.49732C2.98227 4.30591 2.17476 5.29916 1.63214 6.05501L1.58738 6.11724C1.26072 6.57115 0.991821 6.94478 0.991821 7.5C0.991821 8.05522 1.26072 8.42885 1.58738 8.88276L1.63214 8.94499C2.17476 9.70084 2.98227 10.6941 3.96983 11.5027C4.95203 12.3069 6.16191 12.9688 7.5 12.9688C8.8381 12.9688 10.048 12.3069 11.0302 11.5027C12.0177 10.6941 12.8252 9.70084 13.3679 8.94499L13.4126 8.88276C13.7393 8.42885 14.0082 8.05522 14.0082 7.5C14.0082 6.94479 13.7393 6.57115 13.4126 6.11725L13.3679 6.05501C12.8252 5.29916 12.0177 4.30591 11.0302 3.49732C10.048 2.69312 8.8381 2.03125 7.5 2.03125ZM2.39371 6.60174C2.912 5.87978 3.66468 4.95884 4.56375 4.2227C5.46819 3.48216 6.4714 2.96875 7.5 2.96875C8.52861 2.96875 9.53182 3.48216 10.4363 4.22269C11.3353 4.95884 12.088 5.87978 12.6063 6.60174C12.9963 7.14496 13.0707 7.27592 13.0707 7.5C13.0707 7.72408 12.9963 7.85504 12.6063 8.39826C12.088 9.12022 11.3353 10.0412 10.4363 10.7773C9.53182 11.5178 8.52861 12.0312 7.5 12.0312C6.4714 12.0312 5.46819 11.5178 4.56375 10.7773C3.66468 10.0412 2.912 9.12022 2.39371 8.39826C2.00373 7.85504 1.92932 7.72408 1.92932 7.5C1.92932 7.27592 2.00373 7.14496 2.39371 6.60174Z" fill="#9B9B9B"/>
</svg>
