<svg width="20" height="15" viewBox="0 0 20 15" fill="none" xmlns="http://www.w3.org/2000/svg">
<path d="M7.2089 6.64014C6.48799 5.92322 6.04171 4.93041 6.04171 3.83337C6.04171 2.73634 6.48799 1.74353 7.2089 1.02661C6.79384 0.822813 6.32697 0.708374 5.83337 0.708374C4.10748 0.708374 2.70837 2.10748 2.70837 3.83337C2.70837 5.55926 4.10748 6.95837 5.83337 6.95837C6.32697 6.95837 6.79384 6.84394 7.2089 6.64014Z" fill="white"/>
<path d="M6.87504 3.83337C6.87504 2.10748 8.27415 0.708374 10 0.708374C11.7259 0.708374 13.125 2.10748 13.125 3.83337C13.125 5.55926 11.7259 6.95837 10 6.95837C8.27415 6.95837 6.87504 5.55926 6.87504 3.83337Z" fill="white"/>
<path d="M12.7912 1.02661C13.5121 1.74353 13.9584 2.73634 13.9584 3.83337C13.9584 4.93041 13.5121 5.92322 12.7912 6.64014C13.2062 6.84394 13.6731 6.95837 14.1667 6.95837C15.8926 6.95837 17.2917 5.55926 17.2917 3.83337C17.2917 2.10748 15.8926 0.708374 14.1667 0.708374C13.6731 0.708374 13.2062 0.822813 12.7912 1.02661Z" fill="white"/>
<path d="M4.37504 11.3334C4.37504 9.60748 5.77415 8.20837 7.50004 8.20837H12.5C14.2259 8.20837 15.625 9.60748 15.625 11.3334C15.625 13.0593 14.2259 14.4584 12.5 14.4584H7.50004C5.77415 14.4584 4.37504 13.0593 4.37504 11.3334Z" fill="white"/>
<path d="M0.208374 10.5C0.208374 8.77415 1.60748 7.37504 3.33337 7.37504H7.50004C5.31391 7.37504 3.54171 9.14725 3.54171 11.3334C3.54171 12.1874 3.81219 12.9783 4.27217 13.625H3.33337C1.60748 13.625 0.208374 12.2259 0.208374 10.5Z" fill="white"/>
<path d="M16.4584 11.3334C16.4584 12.1874 16.1879 12.9783 15.7279 13.625H16.6667C18.3926 13.625 19.7917 12.2259 19.7917 10.5C19.7917 8.77415 18.3926 7.37504 16.6667 7.37504H12.5C14.6862 7.37504 16.4584 9.14725 16.4584 11.3334Z" fill="white"/>
</svg>
