<svg width="21" height="21" viewBox="0 0 21 21" fill="none" xmlns="http://www.w3.org/2000/svg">
<path fill-rule="evenodd" clip-rule="evenodd" d="M3.79576 3.88358C3 4.97885 3 6.54124 3 9.66602V11.3327C3 14.4575 3 16.0198 3.79576 17.1151C4.05276 17.4688 4.36383 17.7799 4.71756 18.0369C5.81283 18.8327 7.37522 18.8327 10.5 18.8327C13.6248 18.8327 15.1872 18.8327 16.2824 18.0369C16.6362 17.7799 16.9472 17.4688 17.2042 17.1151C18 16.0198 18 14.4575 18 11.3327V9.66602C18 6.54124 18 4.97885 17.2042 3.88358C16.9472 3.52985 16.6362 3.21878 16.2824 2.96178C15.1872 2.16602 13.6248 2.16602 10.5 2.16602C7.37522 2.16602 5.81283 2.16602 4.71756 2.96178C4.36383 3.21878 4.05276 3.52985 3.79576 3.88358ZM7.16667 6.54102C6.82149 6.54102 6.54167 6.82084 6.54167 7.16602C6.54167 7.51119 6.82149 7.79102 7.16667 7.79102H13.8333C14.1785 7.79102 14.4583 7.51119 14.4583 7.16602C14.4583 6.82084 14.1785 6.54102 13.8333 6.54102H7.16667ZM7.16667 9.87435C6.82149 9.87435 6.54167 10.1542 6.54167 10.4993C6.54167 10.8445 6.82149 11.1243 7.16667 11.1243H13.8333C14.1785 11.1243 14.4583 10.8445 14.4583 10.4993C14.4583 10.1542 14.1785 9.87435 13.8333 9.87435H7.16667ZM7.16667 13.2077C6.82149 13.2077 6.54167 13.4875 6.54167 13.8327C6.54167 14.1779 6.82149 14.4577 7.16667 14.4577H13.8333C14.1785 14.4577 14.4583 14.1779 14.4583 13.8327C14.4583 13.4875 14.1785 13.2077 13.8333 13.2077H7.16667Z" fill="white"/>
</svg>
