<svg width="18" height="18" viewBox="0 0 18 18" fill="none" xmlns="http://www.w3.org/2000/svg">
<path d="M3.375 4.79171C3.375 2.60558 5.14721 0.833374 7.33333 0.833374C9.51946 0.833374 11.2917 2.60558 11.2917 4.79171C11.2917 6.97783 9.51946 8.75004 7.33333 8.75004C5.14721 8.75004 3.375 6.97783 3.375 4.79171Z" fill="white"/>
<path d="M0.875 13.9584C0.875 11.7722 2.64721 10 4.83333 10H9.83333C11.531 10 12.979 11.0688 13.5414 12.5701L13.284 12.8576C12.7052 13.504 12.3802 13.8613 12.125 14.079C11.8698 13.8613 11.5448 13.504 10.966 12.8576L10.2417 12.0486C9.62774 11.3628 8.57407 11.3046 7.88829 11.9186C7.2025 12.5326 7.1443 13.5863 7.75828 14.2721L8.54723 15.1533C9.04709 15.7118 9.53318 16.255 9.99506 16.6432C10.428 17.0072 10.9767 17.3556 11.6716 17.4649C11.1223 17.7534 10.4969 17.9167 9.83333 17.9167H4.83333C2.64721 17.9167 0.875 16.1445 0.875 13.9584Z" fill="white"/>
<path d="M17.799 11.2503C18.0292 10.9931 18.0074 10.598 17.7502 10.3677C17.4931 10.1375 17.0979 10.1593 16.8677 10.4165L14.06 13.5525C13.4911 14.1879 13.108 14.6136 12.7804 14.8889C12.4684 15.1512 12.2851 15.2084 12.125 15.2084C11.9649 15.2084 11.7816 15.1512 11.4696 14.8889C11.142 14.6136 10.7589 14.1879 10.19 13.5525L9.46564 12.7434C9.2354 12.4863 8.84028 12.4645 8.58311 12.6947C8.32594 12.9249 8.30411 13.3201 8.53435 13.5772L9.28961 14.4208C9.81948 15.0127 10.2614 15.5064 10.6653 15.8458C11.0925 16.2049 11.5533 16.4584 12.125 16.4584C12.6967 16.4584 13.1575 16.2049 13.5847 15.8458C13.9885 15.5064 14.4305 15.0127 14.9604 14.4208L17.799 11.2503Z" fill="white"/>
</svg>
